<svg xmlns="http://www.w3.org/2000/svg" xmlns:xlink="http://www.w3.org/1999/xlink" version="1.0" x="0" y="0" width="2400" height="726.4713955202927" viewBox="70.42759735107421 94.85978729248046 199.1447900390625 60.280413970947265" preserveAspectRatio="xMidYMid meet" color-interpolation-filters="sRGB"><g><defs><linearGradient id="92" x1="0%" y1="0%" x2="100%" y2="0%"><stop offset="0%" stop-color="#fa71cd"></stop> <stop offset="100%" stop-color="#9b59b6"></stop></linearGradient><linearGradient id="93" x1="0%" y1="0%" x2="100%" y2="0%"><stop offset="0%" stop-color="#f9d423"></stop> <stop offset="100%" stop-color="#f83600"></stop></linearGradient><linearGradient id="94" x1="0%" y1="0%" x2="100%" y2="0%"><stop offset="0%" stop-color="#0064d2"></stop> <stop offset="100%" stop-color="#1cb0f6"></stop></linearGradient><linearGradient id="95" x1="0%" y1="0%" x2="100%" y2="0%"><stop offset="0%" stop-color="#f00978"></stop> <stop offset="100%" stop-color="#3f51b1"></stop></linearGradient><linearGradient id="96" x1="0%" y1="0%" x2="100%" y2="0%"><stop offset="0%" stop-color="#7873f5"></stop> <stop offset="100%" stop-color="#ec77ab"></stop></linearGradient><linearGradient id="97" x1="0%" y1="0%" x2="100%" y2="0%"><stop offset="0%" stop-color="#f9d423"></stop> <stop offset="100%" stop-color="#e14fad"></stop></linearGradient><linearGradient id="98" x1="0%" y1="0%" x2="100%" y2="0%"><stop offset="0%" stop-color="#009efd"></stop> <stop offset="100%" stop-color="#2af598"></stop></linearGradient><linearGradient id="99" x1="0%" y1="0%" x2="100%" y2="0%"><stop offset="0%" stop-color="#ffcc00"></stop> <stop offset="100%" stop-color="#00b140"></stop></linearGradient><linearGradient id="100" x1="0%" y1="0%" x2="100%" y2="0%"><stop offset="0%" stop-color="#d51007"></stop> <stop offset="100%" stop-color="#ff8177"></stop></linearGradient><linearGradient id="102" x1="0%" y1="0%" x2="100%" y2="0%"><stop offset="0%" stop-color="#a2b6df"></stop> <stop offset="100%" stop-color="#0c3483"></stop></linearGradient><linearGradient id="103" x1="0%" y1="0%" x2="100%" y2="0%"><stop offset="0%" stop-color="#7ac5d8"></stop> <stop offset="100%" stop-color="#eea2a2"></stop></linearGradient><linearGradient id="104" x1="0%" y1="0%" x2="100%" y2="0%"><stop offset="0%" stop-color="#00ecbc"></stop> <stop offset="100%" stop-color="#007adf"></stop></linearGradient><linearGradient id="105" x1="0%" y1="0%" x2="100%" y2="0%"><stop offset="0%" stop-color="#b88746"></stop> <stop offset="100%" stop-color="#fdf5a6"></stop></linearGradient></defs><g fill="#fff" class="icon-text-wrapper icon-svg-group iconsvg" transform="translate(72.3800048828125,96.81219291687012)"><g class="iconsvg-imagesvg" transform="translate(0,0)"><g><rect fill="#fff" fill-opacity="0" stroke-width="2" x="0" y="0" width="60" height="56.37561191028761" class="image-rect"></rect> <svg filter="url(#colors6681505809)" x="0" y="0" width="60" height="56.37561191028761" filtersec="colorsf8925959270" class="image-svg-svg primary" style="overflow: visible;"><svg xmlns="http://www.w3.org/2000/svg" xmlns:xlink="http://www.w3.org/1999/xlink" fill="#000000" version="1.1" x="0px" y="0px" viewBox="-2 -1.033 36 34.067" enable-background="new 0 0 32 32" xml:space="preserve"><g display="none"><g display="inline"><polygon fill="#000000" stroke="#000000" stroke-miterlimit="10" points="17.432,16.301 31.5,2.511 31.5,15.722 17.432,29.489   "></polygon><polygon fill="#000000" stroke="#000000" stroke-miterlimit="10" points="0.5,15.699 14.568,29.489 14.568,16.278 0.5,2.511   "></polygon></g></g><g><path d="M16.661,31.03L32,16.162V0.967L16.661,15.86V31.03z M18.661,16.706L30,5.697v9.617L18.661,26.306V16.706z"></path><path d="M15.339,15.838L0,0.97v15.17l15.339,14.894V15.838z M13.339,26.303L2,15.294v-9.6l11.339,10.991V26.303z"></path></g><g display="none"><path display="inline" d="M30.431,2.818c-4.587,4.495-9.174,8.99-13.762,13.485c-0.048,0.045-0.084,0.093-0.084,0.147   c0,4.308,0,8.616,0,12.925c0,0.291,1.008-0.098,1.106-0.193c1.943-1.901,3.886-3.802,5.83-5.703   c2.283-2.234,5.658-4.563,7.399-7.238c2.028-3.117,0.617-9.812,0.617-13.616C31.537,2.333,30.529,2.722,30.431,2.818z    M29.343,16.83c-3.319,4.12-7.701,7.693-11.598,11.373c0-3.999,0-7.999,0-11.998c4.218-4.133,8.435-8.266,12.653-12.399   C30.563,7.885,31.681,13.928,29.343,16.83z"></path><path display="inline" d="M0.02,15.908c0.002,0.002,0.005,0.005,0.007,0.007c0.005,0.003,0.005,0.008,0.01,0.01   c4.591,4.499,9.183,8.998,13.774,13.498c0.199,0.195,1.124-0.05,1.124-0.359c0-3.965,1.336-10.44-0.75-13.695   c-1.668-2.603-5.048-4.939-7.247-7.09c-1.943-1.901-3.886-3.802-5.83-5.703C0.91,2.382-0.015,2.627-0.015,2.935   c0,4.308,0,8.616,0,12.925c0,0.019,0.019,0.031,0.034,0.044C0.02,15.906,0.019,15.907,0.02,15.908z M12.724,15.411   c2.276,2.747,1.335,8.49,1.102,12.551C9.599,23.82,5.371,19.678,1.144,15.536c0-3.826,0-7.651,0-11.477   C5.037,7.748,9.337,11.323,12.724,15.411z"></path></g><g display="none"><g display="inline"><polygon fill="#000000" stroke="#000000" stroke-width="0.5" stroke-miterlimit="10" points="17.432,16.301 31.5,2.511 31.5,15.722     17.432,29.489   "></polygon><polygon fill="#000000" stroke="#000000" stroke-width="0.5" stroke-miterlimit="10" points="0.5,15.699 14.568,29.489     14.568,16.278 0.5,2.511   "></polygon></g></g><desc>Created with Snap</desc><defs></defs></svg></svg> <defs><filter id="colors6681505809"><feColorMatrix type="matrix" values="0 0 0 0 0.99609375  0 0 0 0 0.99609375  0 0 0 0 0.99609375  0 0 0 1 0" class="icon-feColorMatrix "></feColorMatrix></filter> <filter id="colorsf8925959270"><feColorMatrix type="matrix" values="0 0 0 0 0.99609375  0 0 0 0 0.99609375  0 0 0 0 0.99609375  0 0 0 1 0" class="icon-fecolormatrix"></feColorMatrix></filter> <filter id="colorsb2459781698"><feColorMatrix type="matrix" values="0 0 0 0 0  0 0 0 0 0  0 0 0 0 0  0 0 0 1 0" class="icon-fecolormatrix"></feColorMatrix></filter></defs></g></g> <g transform="translate(67,0.7198085784912109)"><g fill-rule="" class="tp-name iconsvg-namesvg" transform="translate(0,0)"><g transform="scale(1)"><g><path d="M2.72-15.75L2.72-3.26 0.88-3.26 0.88 0 8.46 0 8.46-3.26 6.78-3.26 6.78-6.98 10.08-6.98 13.82 0 18.56 0 18.56-3.26 16.35-3.26 13.97-7.58C16.24-8.46 17.66-10.13 17.66-13.06 17.66-17.37 14.53-19.02 10.13-19.02L0.88-19.02 0.88-15.75ZM6.78-15.75L10.13-15.75C12.35-15.75 13.85-14.99 13.85-12.8 13.85-10.64 12.32-9.82 10.13-9.82L6.78-9.82ZM20.1 0L35.79 0 35.79-6.22 32.84-6.22 32.59-3.35 26-3.35 26-8.12 31.45-8.12 31.45-10.79 26-10.79 26-15.67 32.59-15.67 32.84-12.8 35.79-12.8 35.79-19.02 20.1-19.02 20.1-15.67 21.94-15.67 21.94-3.35 20.1-3.35ZM45.47-19.22C42.07-19.22 37.69-18.17 37.69-13.94 37.69-7.58 48.17-8.54 48.17-5.39 48.17-3.46 46.49-2.78 43.91-2.78 43.09-2.78 42.26-2.87 41.47-3.01L41.19-6.33 37.72-6.33 37.72-0.77C39.74-0.26 42.35 0.17 44.17 0.17 49.73 0.2 52.28-1.93 52.28-5.36 52.28-11.86 41.84-10.67 41.84-14.33 41.84-15.9 43.34-16.38 45.44-16.38 46.35-16.38 47.26-16.29 48.14-16.15L48.42-12.77 51.72-12.77 51.72-18.34C50.04-18.79 47.71-19.22 45.47-19.22ZM54.13-19.02L54.13-12.63 57.22-12.63 57.45-15.67 61.48-15.67 61.48-3.35 59.61-3.35 59.61 0 67.38 0 67.38-3.35 65.54-3.35 65.54-15.67 69.54-15.67 69.8-12.63 72.86-12.63 72.86-19.02ZM88.84-9.57C88.84-5.62 86.8-3.29 83.71-3.29 80.55-3.29 78.54-5.62 78.54-9.57 78.54-13.43 80.55-15.72 83.71-15.72 86.8-15.72 88.84-13.4 88.84-9.57ZM92.93-9.57C92.93-15.95 89.01-19.24 83.68-19.24 78.34-19.24 74.42-15.95 74.42-9.57 74.42-3.07 78.34 0.23 83.68 0.23 89.01 0.23 92.93-3.09 92.93-9.57ZM96.05-15.75L96.05-3.26 94.21-3.26 94.21 0 101.79 0 101.79-3.26 100.11-3.26 100.11-6.98 103.4-6.98 107.15 0 111.89 0 111.89-3.26 109.68-3.26 107.29-7.58C109.56-8.46 110.98-10.13 110.98-13.06 110.98-17.37 107.86-19.02 103.46-19.02L94.21-19.02 94.21-15.75ZM100.11-15.75L103.46-15.75C105.67-15.75 107.18-14.99 107.18-12.8 107.18-10.64 105.65-9.82 103.46-9.82L100.11-9.82ZM113.42 0L129.12 0 129.12-6.22 126.17-6.22 125.91-3.35 119.33-3.35 119.33-8.12 124.78-8.12 124.78-10.79 119.33-10.79 119.33-15.67 125.91-15.67 126.17-12.8 129.12-12.8 129.12-19.02 113.42-19.02 113.42-15.67 115.27-15.67 115.27-3.35 113.42-3.35Z" transform="translate(-0.8799999952316284, 19.239999771118164)"></path></g> <g fill="#fff" transform="translate(0,22.470001220703125)"><g transform="scale(0.99782)"><path d="M0.85 0L8.33 0 8.33-3.15 6.55-3.15 6.55-6.11 9.78-6.11C14.02-6.11 17.03-8.05 17.03-12.32 17.03-16.71 14.02-18.35 9.78-18.35L0.85-18.35 0.85-15.2 2.63-15.2 2.63-3.15 0.85-3.15ZM9.78-15.2C11.94-15.2 13.39-14.4 13.36-12.24 13.36-10.08 11.89-9.23 9.78-9.23L6.55-9.23 6.55-15.2ZM22.89 0L22.89-3.15 21.22-3.15 22.02-5.48 28.56-5.48 29.36-3.15 27.71-3.15 27.71 0 35.03 0 35.03-3.15 33.22-3.15 27.82-18.35 22.78-18.35 17.36-3.15 15.58-3.15 15.58 0ZM25.3-15.06L27.66-8.13 22.92-8.13ZM38.01-15.2L38.01-3.15 36.23-3.15 36.23 0 43.54 0 43.54-3.15 41.93-3.15 41.93-6.74 45.1-6.74 48.72 0 53.29 0 53.29-3.15 51.16-3.15 48.86-7.31C51.05-8.16 52.42-9.78 52.42-12.6 52.42-16.76 49.4-18.35 45.16-18.35L36.23-18.35 36.23-15.2ZM41.93-15.2L45.16-15.2C47.3-15.2 48.75-14.46 48.75-12.35 48.75-10.27 47.27-9.48 45.16-9.48L41.93-9.48ZM54.5-18.35L54.5-12.19 57.48-12.19 57.7-15.12 61.59-15.12 61.59-3.23 59.78-3.23 59.78 0 67.29 0 67.29-3.23 65.51-3.23 65.51-15.12 69.37-15.12 69.61-12.19 72.57-12.19 72.57-18.35ZM74.27-15.12L76.05-15.12 76.05-3.23 74.27-3.23 74.27 0 81.75 0 81.75-3.23 79.97-3.23 79.97-13.56 86.81 0 91.99 0 91.99-15.12 93.8-15.12 93.8-18.35 86.27-18.35 86.27-15.12 88.07-15.12 88.07-4.96 81.34-18.35 74.27-18.35ZM95.47 0L110.61 0 110.61-6 107.76-6 107.52-3.23 101.16-3.23 101.16-7.83 106.42-7.83 106.42-10.41 101.16-10.41 101.16-15.12 107.52-15.12 107.76-12.35 110.61-12.35 110.61-18.35 95.47-18.35 95.47-15.12 97.25-15.12 97.25-3.23 95.47-3.23ZM114.09-15.2L114.09-3.15 112.31-3.15 112.31 0 119.62 0 119.62-3.15 118.01-3.15 118.01-6.74 121.18-6.74 124.8 0 129.37 0 129.37-3.15 127.23-3.15 124.93-7.31C127.12-8.16 128.49-9.78 128.49-12.6 128.49-16.76 125.48-18.35 121.24-18.35L112.31-18.35 112.31-15.2ZM118.01-15.2L121.24-15.2C123.37-15.2 124.82-14.46 124.82-12.35 124.82-10.27 123.35-9.48 121.24-9.48L118.01-9.48Z" transform="translate(-0.8500000238418579, 18.350000381469727)"></path></g></g></g></g> <g fill-rule="" class="tp-slogan iconsvg-slogansvg" fill="#fff" transform="translate(5,46.779998779296875)"><rect x="0" height="1" y="3.580000400543213" width="46.039995193481445"></rect> <rect height="1" y="3.580000400543213" width="46.039995193481445" x="72.19999504089355"></rect> <g transform="translate(49.039995193481445,0)"><g transform="scale(1)"><path d="M1.08-7.87L1.08 0L2.08 0L2.08-3.12L3.49-3.12C3.92-3.12 4.32-3.17 4.67-3.27C5.03-3.37 5.34-3.52 5.59-3.72C5.85-3.92 6.05-4.17 6.19-4.48C6.33-4.78 6.40-5.14 6.40-5.56C6.40-5.99 6.33-6.35 6.19-6.65C6.05-6.94 5.85-7.18 5.60-7.36C5.35-7.54 5.04-7.67 4.68-7.75C4.32-7.83 3.92-7.87 3.49-7.87ZM3.37-3.94L2.08-3.94L2.08-7.07L3.37-7.07C4.05-7.07 4.56-6.96 4.90-6.74C5.23-6.52 5.40-6.12 5.40-5.56C5.40-5.00 5.23-4.59 4.90-4.33C4.57-4.07 4.06-3.94 3.37-3.94ZM8.99-4.14L8.99-7.07L10.31-7.07C10.92-7.07 11.40-6.96 11.72-6.76C12.05-6.55 12.22-6.18 12.22-5.66C12.22-5.15 12.05-4.77 11.72-4.52C11.40-4.27 10.92-4.14 10.31-4.14ZM12.31 0L13.44 0L11.45-3.43C11.98-3.57 12.41-3.82 12.73-4.19C13.05-4.56 13.21-5.05 13.21-5.66C13.21-6.07 13.14-6.42 13.01-6.70C12.87-6.98 12.68-7.20 12.44-7.38C12.19-7.56 11.90-7.68 11.56-7.76C11.22-7.83 10.85-7.87 10.45-7.87L7.99-7.87L7.99 0L8.99 0L8.99-3.32L10.42-3.32ZM17.87 0.14C18.36 0.14 18.82 0.05 19.23-0.14C19.64-0.34 20.00-0.61 20.30-0.97C20.60-1.32 20.83-1.75 20.99-2.26C21.16-2.77 21.24-3.34 21.24-3.97C21.24-4.60 21.16-5.16 20.99-5.66C20.83-6.16 20.60-6.58 20.30-6.93C20.00-7.28 19.64-7.55 19.23-7.73C18.82-7.92 18.36-8.02 17.87-8.02C17.37-8.02 16.92-7.92 16.51-7.74C16.09-7.56 15.74-7.29 15.44-6.94C15.15-6.59 14.92-6.17 14.75-5.67C14.59-5.17 14.51-4.60 14.51-3.97C14.51-3.34 14.59-2.77 14.75-2.26C14.92-1.75 15.15-1.32 15.44-0.97C15.74-0.61 16.09-0.34 16.51-0.14C16.92 0.05 17.37 0.14 17.87 0.14ZM17.87-0.73C17.52-0.73 17.20-0.81 16.91-0.96C16.63-1.11 16.39-1.33 16.18-1.61C15.98-1.90 15.82-2.24 15.71-2.63C15.60-3.03 15.54-3.48 15.54-3.97C15.54-4.46 15.60-4.90 15.71-5.29C15.82-5.68 15.98-6.02 16.18-6.29C16.39-6.56 16.63-6.77 16.91-6.92C17.20-7.07 17.52-7.14 17.87-7.14C18.22-7.14 18.54-7.07 18.82-6.92C19.11-6.77 19.35-6.56 19.55-6.29C19.76-6.02 19.92-5.68 20.03-5.29C20.14-4.90 20.20-4.46 20.20-3.97C20.20-3.48 20.14-3.03 20.03-2.63C19.92-2.24 19.76-1.90 19.55-1.61C19.35-1.33 19.11-1.11 18.82-0.96C18.54-0.81 18.22-0.73 17.87-0.73Z" transform="translate(-1.08, 8.016)"></path></g></g></g></g></g><defs v-gra="od"></defs></g></svg>